<mxfile host="app.diagrams.net" modified="2021-04-11T01:19:27.973Z" agent="5.0 (X11; Linux x86_64) AppleWebKit/537.36 (KHTML, like Gecko) Chrome/89.0.4389.90 Safari/537.36 OPR/75.0.3969.149" etag="v15-LUrFe3RO7jfZtD3v" version="14.5.8" type="github">
  <diagram id="irB2v04NACGP2dBbuSmz" name="Page-1">
    <mxGraphModel dx="868" dy="498" grid="1" gridSize="10" guides="1" tooltips="1" connect="1" arrows="1" fold="1" page="1" pageScale="1" pageWidth="827" pageHeight="1169" math="0" shadow="0">
      <root>
        <mxCell id="0" />
        <mxCell id="1" parent="0" />
        <mxCell id="koz-F7RfOrb6fmqKRFEv-27" value="" style="rounded=0;whiteSpace=wrap;html=1;fillColor=#dae8fc;strokeColor=#6c8ebf;" vertex="1" parent="1">
          <mxGeometry x="330" width="20" height="240" as="geometry" />
        </mxCell>
        <mxCell id="koz-F7RfOrb6fmqKRFEv-3" style="edgeStyle=orthogonalEdgeStyle;rounded=0;orthogonalLoop=1;jettySize=auto;html=1;entryX=0;entryY=0.5;entryDx=0;entryDy=0;" edge="1" parent="1" source="koz-F7RfOrb6fmqKRFEv-1" target="koz-F7RfOrb6fmqKRFEv-2">
          <mxGeometry relative="1" as="geometry">
            <Array as="points">
              <mxPoint x="60" y="140" />
            </Array>
          </mxGeometry>
        </mxCell>
        <mxCell id="koz-F7RfOrb6fmqKRFEv-6" style="edgeStyle=orthogonalEdgeStyle;rounded=0;orthogonalLoop=1;jettySize=auto;html=1;entryX=0;entryY=0.5;entryDx=0;entryDy=0;" edge="1" parent="1" source="koz-F7RfOrb6fmqKRFEv-1" target="koz-F7RfOrb6fmqKRFEv-4">
          <mxGeometry relative="1" as="geometry" />
        </mxCell>
        <mxCell id="koz-F7RfOrb6fmqKRFEv-1" value="0" style="rounded=0;whiteSpace=wrap;html=1;" vertex="1" parent="1">
          <mxGeometry x="40" y="80" width="40" height="40" as="geometry" />
        </mxCell>
        <mxCell id="koz-F7RfOrb6fmqKRFEv-5" style="edgeStyle=orthogonalEdgeStyle;rounded=0;orthogonalLoop=1;jettySize=auto;html=1;entryX=1;entryY=0.75;entryDx=0;entryDy=0;" edge="1" parent="1" source="koz-F7RfOrb6fmqKRFEv-2" target="koz-F7RfOrb6fmqKRFEv-1">
          <mxGeometry relative="1" as="geometry">
            <Array as="points">
              <mxPoint x="140" y="110" />
            </Array>
          </mxGeometry>
        </mxCell>
        <mxCell id="koz-F7RfOrb6fmqKRFEv-2" value="1" style="rounded=0;whiteSpace=wrap;html=1;" vertex="1" parent="1">
          <mxGeometry x="120" y="120" width="40" height="40" as="geometry" />
        </mxCell>
        <mxCell id="koz-F7RfOrb6fmqKRFEv-16" style="edgeStyle=orthogonalEdgeStyle;rounded=0;orthogonalLoop=1;jettySize=auto;html=1;entryX=0;entryY=0.5;entryDx=0;entryDy=0;exitX=0.5;exitY=1;exitDx=0;exitDy=0;" edge="1" parent="1" source="koz-F7RfOrb6fmqKRFEv-4" target="koz-F7RfOrb6fmqKRFEv-7">
          <mxGeometry relative="1" as="geometry" />
        </mxCell>
        <mxCell id="koz-F7RfOrb6fmqKRFEv-26" style="edgeStyle=orthogonalEdgeStyle;rounded=0;orthogonalLoop=1;jettySize=auto;html=1;entryX=0;entryY=0.5;entryDx=0;entryDy=0;" edge="1" parent="1" source="koz-F7RfOrb6fmqKRFEv-4" target="koz-F7RfOrb6fmqKRFEv-19">
          <mxGeometry relative="1" as="geometry" />
        </mxCell>
        <mxCell id="koz-F7RfOrb6fmqKRFEv-4" value="2" style="rounded=0;whiteSpace=wrap;html=1;" vertex="1" parent="1">
          <mxGeometry x="200" y="80" width="40" height="40" as="geometry" />
        </mxCell>
        <mxCell id="koz-F7RfOrb6fmqKRFEv-13" style="edgeStyle=orthogonalEdgeStyle;rounded=0;orthogonalLoop=1;jettySize=auto;html=1;entryX=1;entryY=0.75;entryDx=0;entryDy=0;" edge="1" parent="1" source="koz-F7RfOrb6fmqKRFEv-7" target="koz-F7RfOrb6fmqKRFEv-4">
          <mxGeometry relative="1" as="geometry">
            <Array as="points">
              <mxPoint x="300" y="110" />
            </Array>
          </mxGeometry>
        </mxCell>
        <mxCell id="koz-F7RfOrb6fmqKRFEv-17" style="edgeStyle=orthogonalEdgeStyle;rounded=0;orthogonalLoop=1;jettySize=auto;html=1;entryX=0;entryY=0.5;entryDx=0;entryDy=0;" edge="1" parent="1" source="koz-F7RfOrb6fmqKRFEv-7" target="koz-F7RfOrb6fmqKRFEv-8">
          <mxGeometry relative="1" as="geometry" />
        </mxCell>
        <mxCell id="koz-F7RfOrb6fmqKRFEv-7" value="3" style="rounded=0;whiteSpace=wrap;html=1;" vertex="1" parent="1">
          <mxGeometry x="280" y="120" width="40" height="40" as="geometry" />
        </mxCell>
        <mxCell id="koz-F7RfOrb6fmqKRFEv-14" style="edgeStyle=orthogonalEdgeStyle;rounded=0;orthogonalLoop=1;jettySize=auto;html=1;entryX=1;entryY=0.75;entryDx=0;entryDy=0;" edge="1" parent="1" source="koz-F7RfOrb6fmqKRFEv-8" target="koz-F7RfOrb6fmqKRFEv-4">
          <mxGeometry relative="1" as="geometry">
            <Array as="points">
              <mxPoint x="380" y="110" />
            </Array>
          </mxGeometry>
        </mxCell>
        <mxCell id="koz-F7RfOrb6fmqKRFEv-18" style="edgeStyle=orthogonalEdgeStyle;rounded=0;orthogonalLoop=1;jettySize=auto;html=1;entryX=0;entryY=0.5;entryDx=0;entryDy=0;" edge="1" parent="1" source="koz-F7RfOrb6fmqKRFEv-8" target="koz-F7RfOrb6fmqKRFEv-10">
          <mxGeometry relative="1" as="geometry" />
        </mxCell>
        <mxCell id="koz-F7RfOrb6fmqKRFEv-21" style="edgeStyle=orthogonalEdgeStyle;rounded=0;orthogonalLoop=1;jettySize=auto;html=1;entryX=0;entryY=0.5;entryDx=0;entryDy=0;" edge="1" parent="1" source="koz-F7RfOrb6fmqKRFEv-8" target="koz-F7RfOrb6fmqKRFEv-9">
          <mxGeometry relative="1" as="geometry">
            <Array as="points">
              <mxPoint x="380" y="180" />
            </Array>
          </mxGeometry>
        </mxCell>
        <mxCell id="koz-F7RfOrb6fmqKRFEv-8" value="4" style="rounded=0;whiteSpace=wrap;html=1;" vertex="1" parent="1">
          <mxGeometry x="360" y="120" width="40" height="40" as="geometry" />
        </mxCell>
        <mxCell id="koz-F7RfOrb6fmqKRFEv-20" style="edgeStyle=orthogonalEdgeStyle;rounded=0;orthogonalLoop=1;jettySize=auto;html=1;entryX=1;entryY=0.75;entryDx=0;entryDy=0;" edge="1" parent="1" source="koz-F7RfOrb6fmqKRFEv-9" target="koz-F7RfOrb6fmqKRFEv-8">
          <mxGeometry relative="1" as="geometry">
            <Array as="points">
              <mxPoint x="460" y="150" />
            </Array>
          </mxGeometry>
        </mxCell>
        <mxCell id="koz-F7RfOrb6fmqKRFEv-9" value="5" style="rounded=0;whiteSpace=wrap;html=1;" vertex="1" parent="1">
          <mxGeometry x="440" y="160" width="40" height="40" as="geometry" />
        </mxCell>
        <mxCell id="koz-F7RfOrb6fmqKRFEv-15" style="edgeStyle=orthogonalEdgeStyle;rounded=0;orthogonalLoop=1;jettySize=auto;html=1;entryX=1;entryY=0.75;entryDx=0;entryDy=0;" edge="1" parent="1" source="koz-F7RfOrb6fmqKRFEv-10" target="koz-F7RfOrb6fmqKRFEv-4">
          <mxGeometry relative="1" as="geometry">
            <Array as="points">
              <mxPoint x="540" y="110" />
            </Array>
          </mxGeometry>
        </mxCell>
        <mxCell id="koz-F7RfOrb6fmqKRFEv-24" style="edgeStyle=orthogonalEdgeStyle;rounded=0;orthogonalLoop=1;jettySize=auto;html=1;entryX=0;entryY=0.5;entryDx=0;entryDy=0;" edge="1" parent="1" source="koz-F7RfOrb6fmqKRFEv-10" target="koz-F7RfOrb6fmqKRFEv-11">
          <mxGeometry relative="1" as="geometry">
            <Array as="points">
              <mxPoint x="540" y="180" />
            </Array>
          </mxGeometry>
        </mxCell>
        <mxCell id="koz-F7RfOrb6fmqKRFEv-10" value="6" style="rounded=0;whiteSpace=wrap;html=1;" vertex="1" parent="1">
          <mxGeometry x="520" y="120" width="40" height="40" as="geometry" />
        </mxCell>
        <mxCell id="koz-F7RfOrb6fmqKRFEv-22" style="edgeStyle=orthogonalEdgeStyle;rounded=0;orthogonalLoop=1;jettySize=auto;html=1;entryX=1;entryY=0.75;entryDx=0;entryDy=0;" edge="1" parent="1" source="koz-F7RfOrb6fmqKRFEv-11" target="koz-F7RfOrb6fmqKRFEv-10">
          <mxGeometry relative="1" as="geometry">
            <Array as="points">
              <mxPoint x="620" y="150" />
            </Array>
          </mxGeometry>
        </mxCell>
        <mxCell id="koz-F7RfOrb6fmqKRFEv-25" style="edgeStyle=orthogonalEdgeStyle;rounded=0;orthogonalLoop=1;jettySize=auto;html=1;entryX=0;entryY=0.5;entryDx=0;entryDy=0;" edge="1" parent="1" source="koz-F7RfOrb6fmqKRFEv-11" target="koz-F7RfOrb6fmqKRFEv-12">
          <mxGeometry relative="1" as="geometry" />
        </mxCell>
        <mxCell id="koz-F7RfOrb6fmqKRFEv-11" value="7" style="rounded=0;whiteSpace=wrap;html=1;" vertex="1" parent="1">
          <mxGeometry x="600" y="160" width="40" height="40" as="geometry" />
        </mxCell>
        <mxCell id="koz-F7RfOrb6fmqKRFEv-23" style="edgeStyle=orthogonalEdgeStyle;rounded=0;orthogonalLoop=1;jettySize=auto;html=1;entryX=1;entryY=0.75;entryDx=0;entryDy=0;" edge="1" parent="1" source="koz-F7RfOrb6fmqKRFEv-12" target="koz-F7RfOrb6fmqKRFEv-10">
          <mxGeometry relative="1" as="geometry">
            <Array as="points">
              <mxPoint x="700" y="150" />
            </Array>
          </mxGeometry>
        </mxCell>
        <mxCell id="koz-F7RfOrb6fmqKRFEv-12" value="8" style="rounded=0;whiteSpace=wrap;html=1;" vertex="1" parent="1">
          <mxGeometry x="680" y="160" width="40" height="40" as="geometry" />
        </mxCell>
        <mxCell id="koz-F7RfOrb6fmqKRFEv-19" value="9" style="rounded=0;whiteSpace=wrap;html=1;" vertex="1" parent="1">
          <mxGeometry x="760" y="80" width="40" height="40" as="geometry" />
        </mxCell>
        <mxCell id="koz-F7RfOrb6fmqKRFEv-28" value="" style="rounded=0;whiteSpace=wrap;html=1;fillColor=#d5e8d4;strokeColor=#82b366;" vertex="1" parent="1">
          <mxGeometry x="200" y="80" width="520" height="10" as="geometry" />
        </mxCell>
        <mxCell id="koz-F7RfOrb6fmqKRFEv-29" value="" style="rounded=0;whiteSpace=wrap;html=1;fillColor=#ffe6cc;strokeColor=#d79b00;" vertex="1" parent="1">
          <mxGeometry x="280" y="120" width="40" height="10" as="geometry" />
        </mxCell>
        <mxCell id="koz-F7RfOrb6fmqKRFEv-30" value="" style="rounded=0;whiteSpace=wrap;html=1;fillColor=#ffe6cc;strokeColor=#d79b00;" vertex="1" parent="1">
          <mxGeometry x="360" y="120" width="120" height="10" as="geometry" />
        </mxCell>
        <mxCell id="koz-F7RfOrb6fmqKRFEv-31" value="" style="rounded=0;whiteSpace=wrap;html=1;fillColor=#f8cecc;strokeColor=#b85450;" vertex="1" parent="1">
          <mxGeometry x="440" y="160" width="40" height="10" as="geometry" />
        </mxCell>
        <mxCell id="koz-F7RfOrb6fmqKRFEv-32" value="" style="rounded=0;whiteSpace=wrap;html=1;fillColor=#ffe6cc;strokeColor=#d79b00;" vertex="1" parent="1">
          <mxGeometry x="520" y="120" width="200" height="10" as="geometry" />
        </mxCell>
        <mxCell id="koz-F7RfOrb6fmqKRFEv-33" value="" style="rounded=0;whiteSpace=wrap;html=1;fillColor=#f8cecc;strokeColor=#b85450;" vertex="1" parent="1">
          <mxGeometry x="600" y="160" width="40" height="10" as="geometry" />
        </mxCell>
        <mxCell id="koz-F7RfOrb6fmqKRFEv-34" value="" style="rounded=0;whiteSpace=wrap;html=1;fillColor=#f8cecc;strokeColor=#b85450;" vertex="1" parent="1">
          <mxGeometry x="680" y="160" width="40" height="10" as="geometry" />
        </mxCell>
        <mxCell id="koz-F7RfOrb6fmqKRFEv-35" value="" style="rounded=0;whiteSpace=wrap;html=1;fillColor=#ffe6cc;strokeColor=#d79b00;" vertex="1" parent="1">
          <mxGeometry x="120" y="120" width="40" height="10" as="geometry" />
        </mxCell>
        <mxCell id="koz-F7RfOrb6fmqKRFEv-36" value="" style="rounded=0;whiteSpace=wrap;html=1;fillColor=#d5e8d4;strokeColor=#82b366;" vertex="1" parent="1">
          <mxGeometry x="40" y="80" width="120" height="10" as="geometry" />
        </mxCell>
        <mxCell id="koz-F7RfOrb6fmqKRFEv-37" value="" style="rounded=0;whiteSpace=wrap;html=1;fillColor=#e1d5e7;strokeColor=#9673a6;" vertex="1" parent="1">
          <mxGeometry x="40" y="40" width="760" height="10" as="geometry" />
        </mxCell>
        <mxCell id="koz-F7RfOrb6fmqKRFEv-40" value="" style="rounded=0;whiteSpace=wrap;html=1;fillColor=#d5e8d4;strokeColor=#82b366;" vertex="1" parent="1">
          <mxGeometry x="760" y="80" width="40" height="10" as="geometry" />
        </mxCell>
      </root>
    </mxGraphModel>
  </diagram>
</mxfile>
